# xmcd
#
# Track frame offsets: 
#        150
#        14394
#        35102
#        50304
#        65527
#        78286
#        93535
#        115572
#        128866
#        141343
#        154482
#        168932
#        186005
#        197885
#
# Disc length: 2930 seconds
#
# Revision: 3
# Processed by: cddbd v1.5.1PL0 Copyright (c) Steve Scherf et al.
# Submitted via: ExactAudioCopy v0.95a5
#
DISCID=c00b700e
DTITLE=Tania Alves - Me Deixas Louca
DYEAR=1900
DGENRE=Latin
TTITLE0=Só Nós Dois
TTITLE1=Pot-Pourri Roberto carlos
TTITLE2=Quem É
TTITLE3=Me Deixas Louca
TTITLE4=Que Será
TTITLE5=Quem Eu Quero Não Me Quer
TTITLE6=Pot-Pourri Julio Iglesias
TTITLE7=Faz-me Rir
TTITLE8=Sombras
TTITLE9=Ninguém É De Ninguém
TTITLE10=Sonhar Contigo
TTITLE11=Outra Vez
TTITLE12=Meia Volta
TTITLE13=Pot-Pourri Tangos
EXTD=
EXTT0=
EXTT1=
EXTT2=
EXTT3=
EXTT4=
EXTT5=
EXTT6=
EXTT7=
EXTT8=
EXTT9=
EXTT10=
EXTT11=
EXTT12=
EXTT13=
PLAYORDER=
